<svg xmlns="http://www.w3.org/2000/svg" viewBox="0 0 596.55 325.29"><defs><style>.cls-1{stroke:#000;stroke-miterlimit:10;}.cls-2{fill:#fff;}</style></defs><g id="FG"><g id="Layer_4" data-name="Layer 4"><rect class="cls-1" x="-235.63" y="-341.11" width="1093.1" height="1016.98"/></g><path class="cls-2" d="M76.51,199.22a6.62,6.62,0,0,1-2-1.36,6.37,6.37,0,0,1-1.36-2,6.4,6.4,0,0,1,0-5,6.46,6.46,0,0,1,3.36-3.36A6,6,0,0,1,79,187h30.4a2.29,2.29,0,1,1,0,4.58H78.9a1.85,1.85,0,0,0-1.27.5,1.62,1.62,0,0,0-.55,1.26,1.64,1.64,0,0,0,.55,1.24,1.8,1.8,0,0,0,1.27.53h26.38a6.39,6.39,0,0,1,2.51.5,6.46,6.46,0,0,1,2,1.36,6.33,6.33,0,0,1,1.35,2,6.18,6.18,0,0,1,.51,2.5,6,6,0,0,1-.51,2.48,6.35,6.35,0,0,1-1.35,2,6.06,6.06,0,0,1-2,1.33,6.56,6.56,0,0,1-2.51.48H74.93a2.2,2.2,0,0,1-1.62-.67,2.32,2.32,0,0,1,0-3.24,2.2,2.2,0,0,1,1.62-.67h30.54a1.75,1.75,0,0,0,1.24-.5,1.64,1.64,0,0,0,.53-1.22,1.76,1.76,0,0,0-.53-1.29,1.69,1.69,0,0,0-1.24-.52H79A6.17,6.17,0,0,1,76.51,199.22Z"/><path class="cls-2" d="M175.75,195.33a28.89,28.89,0,0,0,3.29-.17,9.92,9.92,0,0,0,3.06-.93,23.19,23.19,0,0,0,3.7-2.29c1.38-1,3.11-2.43,5.17-4.24a2.53,2.53,0,0,1,1.62-.67,2.29,2.29,0,0,1,2.3,2.29,2.11,2.11,0,0,1-.27,1,2.87,2.87,0,0,1-.64.81q-3,2.67-5.37,4.42a28.74,28.74,0,0,1-4.46,2.76,17.91,17.91,0,0,1-4.1,1.46,21,21,0,0,1-4.3.43,22.79,22.79,0,0,1-4.46-.41,16.12,16.12,0,0,1-4.08-1.45,31.44,31.44,0,0,1-4.39-2.79c-1.56-1.17-3.35-2.64-5.39-4.42a3.09,3.09,0,0,1-.65-.81,2.1,2.1,0,0,1-.26-1,2.29,2.29,0,0,1,2.29-2.29,1.84,1.84,0,0,1,.86.19,4.18,4.18,0,0,1,.76.48q3.06,2.67,5.14,4.19a21.38,21.38,0,0,0,3.72,2.29,10.86,10.86,0,0,0,3.12,1A25.86,25.86,0,0,0,175.75,195.33Zm-3,10.21a2.94,2.94,0,1,1,.86,2.1A2.86,2.86,0,0,1,172.79,205.54Z"/><path class="cls-2" d="M243.6,199.22a6.67,6.67,0,0,1-2-1.36,6.54,6.54,0,0,1-1.36-2,6.4,6.4,0,0,1,0-5,6.62,6.62,0,0,1,1.36-2,6.49,6.49,0,0,1,2-1.36,6,6,0,0,1,2.48-.5h30.4a2.29,2.29,0,1,1,0,4.58H246a1.85,1.85,0,0,0-1.26.5,1.62,1.62,0,0,0-.55,1.26,1.64,1.64,0,0,0,.55,1.24,1.79,1.79,0,0,0,1.26.53h26.39a6.39,6.39,0,0,1,2.51.5,6.31,6.31,0,0,1,2,1.36,6.4,6.4,0,0,1,1.86,4.53,6,6,0,0,1-.5,2.48,6.21,6.21,0,0,1-1.36,2,5.92,5.92,0,0,1-2,1.33,6.56,6.56,0,0,1-2.51.48H242a2.2,2.2,0,0,1-1.62-.67,2.29,2.29,0,0,1,0-3.24,2.2,2.2,0,0,1,1.62-.67h30.54a1.75,1.75,0,0,0,1.24-.5,1.63,1.63,0,0,0,.52-1.22,1.75,1.75,0,0,0-.52-1.29,1.69,1.69,0,0,0-1.24-.52H246.08A6.17,6.17,0,0,1,243.6,199.22Z"/><path class="cls-2" d="M358.73,187a2.29,2.29,0,0,1,1.68,3.84,2.37,2.37,0,0,1-1.48.74h-9.59a4.87,4.87,0,0,0-2.37.69,4.49,4.49,0,0,0-1.45,1.46,5.54,5.54,0,0,0-.72,1.86,9.45,9.45,0,0,0-.19,1.81v8.11a2.17,2.17,0,0,1-.67,1.62,2.29,2.29,0,0,1-3.24,0,2.17,2.17,0,0,1-.67-1.62v-8.11a12.24,12.24,0,0,1,.38-3,11.36,11.36,0,0,1,1.15-2.84H325.91a2.29,2.29,0,1,1,0-4.58Z"/><path class="cls-2" d="M415.7,191.61a5.39,5.39,0,0,0-2.69.59,4.9,4.9,0,0,0-1.62,1.46,5,5,0,0,0-.81,1.89,8.14,8.14,0,0,0,0,3.76,5,5,0,0,0,.81,1.89,4.77,4.77,0,0,0,1.62,1.45,5.28,5.28,0,0,0,2.69.6H442a2.29,2.29,0,1,1,0,4.58H414.17a6.49,6.49,0,0,1-3.48-1,9.22,9.22,0,0,1-2.6-2.46,11.67,11.67,0,0,1-1.64-3.36,12.1,12.1,0,0,1-.58-3.63,11.67,11.67,0,0,1,.6-3.65,11.31,11.31,0,0,1,1.74-3.34A9.59,9.59,0,0,1,411,188a7.07,7.07,0,0,1,3.67-.95H442a2.29,2.29,0,1,1,0,4.58Zm25.91,4.2a2.29,2.29,0,0,1,0,3.24,2.2,2.2,0,0,1-1.62.67H416.23a2.29,2.29,0,1,1,0-4.58H440A2.2,2.2,0,0,1,441.61,195.81Z"/><path class="cls-2" d="M493,207.16a2.29,2.29,0,0,1-3.24,0,2.21,2.21,0,0,1-.67-1.62V189.32a2.21,2.21,0,0,1,.67-1.62,2.17,2.17,0,0,1,1.62-.67,1.84,1.84,0,0,1,.86.19,4.18,4.18,0,0,1,.76.48,57.42,57.42,0,0,0,5.28,4.19,22.15,22.15,0,0,0,4.05,2.29,13.1,13.1,0,0,0,3.46,1,29.34,29.34,0,0,0,3.48.19,33.67,33.67,0,0,0,3.46-.17,11.68,11.68,0,0,0,3.39-.93,23.67,23.67,0,0,0,4-2.29,61.06,61.06,0,0,0,5.32-4.24,2.53,2.53,0,0,1,1.62-.67,2.29,2.29,0,0,1,2.29,2.29v16.22a2.29,2.29,0,1,1-4.58,0V194.23a33.8,33.8,0,0,1-4.13,2.87,25.25,25.25,0,0,1-3.86,1.83,19.4,19.4,0,0,1-3.75,1,24.89,24.89,0,0,1-3.77.29,26.23,26.23,0,0,1-3.93-.29,19.4,19.4,0,0,1-3.77-1,23.25,23.25,0,0,1-3.82-1.83,36,36,0,0,1-4.08-2.87v11.31A2.17,2.17,0,0,1,493,207.16Zm13.32-1.62a3,3,0,0,1,5.05-2.1,3,3,0,0,1,0,4.2,3,3,0,0,1-5.05-2.1Z"/><path class="cls-2" d="M83.43,164.86a6.05,6.05,0,0,1-10.78-3.81,5.29,5.29,0,0,1,1.26-3.68l30.84-41.5a16.82,16.82,0,0,1,13.33-6.6,16.43,16.43,0,0,1,7.23,1.65,14.75,14.75,0,0,1,5.59,4.57l30.84,41.24a8.85,8.85,0,0,1,1.27,2,5.6,5.6,0,0,1,.51,2.35,6.08,6.08,0,0,1-6.1,6.09,5.66,5.66,0,0,1-4.82-2.41L123,125.26a28.9,28.9,0,0,0-2.22-2.22,3.71,3.71,0,0,0-5.46,0,17,17,0,0,0-2.09,2.22Zm26.78-11.43A7.8,7.8,0,1,1,112.5,159,7.61,7.61,0,0,1,110.21,153.43Z"/><path class="cls-2" d="M219.23,139.48a6.06,6.06,0,0,1,6.09-6.1h48.61a14.94,14.94,0,0,1,6,1.21,15.51,15.51,0,0,1,4.89,3.3,14.5,14.5,0,0,1,3.23,5,15.89,15.89,0,0,1,1.14,6v2.79a16,16,0,0,1-1.14,6,14.69,14.69,0,0,1-3.23,4.95,15.85,15.85,0,0,1-4.89,3.3,14.93,14.93,0,0,1-6,1.2H207.81a17.07,17.07,0,0,1-9.27-2.54,24.29,24.29,0,0,1-6.92-6.53,30.92,30.92,0,0,1-4.37-8.95,32.54,32.54,0,0,1-1.53-9.64,31.23,31.23,0,0,1,1.59-9.71,29.77,29.77,0,0,1,4.63-8.89,25.39,25.39,0,0,1,7.36-6.53,19,19,0,0,1,9.78-2.54h74a6.09,6.09,0,1,1,0,12.18H211.86a14.09,14.09,0,0,0-7.16,1.59,13.24,13.24,0,0,0-4.32,3.87,13.65,13.65,0,0,0-2.16,5,22.74,22.74,0,0,0,0,10,13.65,13.65,0,0,0,2.16,5,13.13,13.13,0,0,0,4.32,3.87,14.09,14.09,0,0,0,7.16,1.59h61.56a3.58,3.58,0,0,0,2.73-1.4,4.91,4.91,0,0,0,1.21-3.3,5.31,5.31,0,0,0-1.08-3.3,3.46,3.46,0,0,0-2.86-1.39h-48.1a6.06,6.06,0,0,1-6.09-6.09Z"/><path class="cls-2" d="M394.62,114.09a6.06,6.06,0,0,1,10.79,3.81,5.29,5.29,0,0,1-1.27,3.68l-.13.13L373.3,163.08a17.53,17.53,0,0,1-5.78,4.76,15.88,15.88,0,0,1-7.55,1.84,16.25,16.25,0,0,1-12.82-6.22l-30.84-41.24a8.59,8.59,0,0,1-1.26-2,5.42,5.42,0,0,1-.51-2.35,6,6,0,0,1,6.09-6.09,5.66,5.66,0,0,1,4.82,2.41L355,153.69a28.93,28.93,0,0,0,2.22,2.22,3.68,3.68,0,0,0,5.46,0,16,16,0,0,0,2.1-2.22Z"/><path class="cls-2" d="M516.64,134.46a13.33,13.33,0,0,0-2.16-5,13,13,0,0,0-4.37-3.87A14.23,14.23,0,0,0,503,124H457.19a14.11,14.11,0,0,0-7.17,1.59,13,13,0,0,0-6.47,8.88,24,24,0,0,0-.58,5v21.57a6.09,6.09,0,1,1-12.18,0V139.48a31.51,31.51,0,0,1,1.58-9.71,29.8,29.8,0,0,1,4.64-8.89,25.26,25.26,0,0,1,7.36-6.53,18.9,18.9,0,0,1,9.77-2.54h53.18a18.56,18.56,0,0,1,9.26,2.85,25.64,25.64,0,0,1,6.92,6.54,30.49,30.49,0,0,1,4.38,8.76,31.63,31.63,0,0,1,1.52,9.52v21.57a6.09,6.09,0,1,1-12.18,0V139.48A24,24,0,0,0,516.64,134.46Z"/></g><g id="BG"><path class="cls-2" d="M312.16,103c72.1-33.85,133.09-46.48,143.06-27.84,3.52,6.56.26,16.25-8.37,27.84h27.34C493,82.63,501.32,65.45,495.6,54.77,481.72,28.82,390.22,50.49,288,103Z"/><path class="cls-2" d="M314.09,214.74C211.83,267.29,120.33,289,106.44,263c-5.71-10.69,2.64-27.87,21.41-48.27h25c-7.62,10.77-10.37,19.79-7,26,9.79,18.29,68.74,6.45,139.09-26Z"/></g></svg>