
        <svg xmlns="http://www.w3.org/2000/svg" xmlns:xlink="http://www.w3.org/1999/xlink" version="1.1" width="3153.959544672836" 
        height="1249.2834329702725" viewBox="0 0 3153.959544672836 1249.2834329702725">
			
			<g transform="scale(7.697977233641798) translate(10, 10)">
				<defs id="SvgjsDefs1521"><linearGradient id="SvgjsLinearGradient1528"><stop id="SvgjsStop1529" stop-color="#51504f" offset="0"></stop><stop id="SvgjsStop1530" stop-color="#939598" offset="0.5"></stop><stop id="SvgjsStop1531" stop-color="#51504f" offset="1"></stop></linearGradient><linearGradient id="SvgjsLinearGradient1532"><stop id="SvgjsStop1533" stop-color="#51504f" offset="0"></stop><stop id="SvgjsStop1534" stop-color="#939598" offset="0.5"></stop><stop id="SvgjsStop1535" stop-color="#51504f" offset="1"></stop></linearGradient></defs><g id="SvgjsG1522" featureKey="symbolFeature-0" transform="matrix(1.4443684816360474,0,0,1.4443684816360474,6.425193135155716,11.425193135155716)" fill="#037ecc"><g xmlns="http://www.w3.org/2000/svg"><circle cx="50" cy="50" r="17.8"></circle><path d="M50,78.9c16,0,28.9-13,28.9-28.9c0-8.9-4-17.1-10.9-22.6l-5.3,6.7c4.9,3.9,7.7,9.7,7.7,15.9c0,11.2-9.1,20.4-20.4,20.4   c-11.2,0-20.4-9.1-20.4-20.4S38.8,29.6,50,29.6c0.9,0,1.8,0.1,2.7,0.2l1.1-8.5c-1.3-0.2-2.6-0.3-3.9-0.3c-16,0-28.9,13-28.9,28.9   C21.1,66,34,78.9,50,78.9z"></path><path d="M50,82.1c-7.3,0-14.1-2.4-19.8-6.9l-5.3,6.7c7.2,5.7,15.9,8.7,25.1,8.7c15.2,0,29-8.4,36-21.8l-7.5-3.9   C72.9,75.5,62,82.1,50,82.1z"></path><path d="M46.4,18.1c1.2-0.1,2.4-0.2,3.6-0.2c17.7,0,32.1,14.4,32.1,32.1h8.5C90.6,27.6,72.4,9.4,50,9.4c-1.5,0-3,0.1-4.5,0.2   C24.9,11.9,9.4,29.3,9.4,50c0,4.4,0.7,8.7,2.1,12.8l8.1-2.7c-1.1-3.3-1.6-6.7-1.6-10.2C17.9,33.6,30.2,19.9,46.4,18.1z"></path></g></g><g id="SvgjsG1523" featureKey="nameFeature-0" transform="matrix(2.123110055923462,0,0,2.123110055923462,153.11039603585021,2.89367199466189)" fill="url(#SvgjsLinearGradient1528)"><path d="M8.76 13.84 c0.04 -0.12 0.12 -0.24 0.28 -0.24 l4.96 0 c0.16 0 0.24 0.12 0.28 0.24 l6.92 25.72 c0.04 0.24 -0.12 0.44 -0.36 0.44 l-4.56 0 c-0.12 0 -0.24 -0.08 -0.28 -0.24 l-1.56 -5.6 l-5.84 0 l-1.52 5.6 c-0.04 0.16 -0.12 0.24 -0.28 0.24 l-4.6 0 c-0.24 0 -0.4 -0.2 -0.36 -0.44 z M9.88 29.2 l3.32 0 l-1.72 -6.04 z M16.04 31.560000000000002 l1.84 6 c0.08 0.24 0.52 0.2 0.4 -0.12 l-6.4 -21.28 c-0.12 -0.52 -0.8 -0.56 -0.92 0 l-6.2 21.28 c-0.12 0.28 0.32 0.4 0.44 0.16 l1.76 -6.04 l9.08 0 z M7.08 31.04 l4.36 -14.72 l4.44 14.72 l-8.8 0 z M27.119999999999997 40 c-0.2 0 -0.32 -0.16 -0.32 -0.36 l0 -25.68 c0 -0.2 0.12 -0.36 0.32 -0.36 l13.6 0 c0.2 0 0.36 0.16 0.36 0.36 l0 4.28 c0 0.2 -0.16 0.36 -0.36 0.36 l-8.64 0 l0 5.44 l6.72 0 c0.2 0 0.32 0.16 0.32 0.36 l0 4.36 c0 0.2 -0.12 0.36 -0.32 0.36 l-6.72 0 l0 5.88 l8.64 0 c0.2 0 0.36 0.16 0.36 0.36 l0 4.28 c0 0.2 -0.16 0.36 -0.36 0.36 l-13.6 0 z M29.119999999999997 16.12 l0 21.28 c0 0.24 0.16 0.32 0.32 0.32 l9.2 0 c0.36 0 0.28 -0.48 0 -0.48 l-9 0 l0 -10.44 l7.36 0 c0.24 0 0.24 -0.56 0 -0.56 l-7.36 0 l0 -9.92 l9 0 c0.28 0 0.36 -0.52 0 -0.52 l-9.2 0 c-0.16 0 -0.32 0.12 -0.32 0.32 z M62.84 29.560000000000002 c-0.56 1.16 -1.36 2.04 -2.48 2.56 l3.36 7.4 c0.12 0.24 -0.04 0.48 -0.28 0.48 l-4.92 0 c-0.16 0 -0.24 -0.08 -0.28 -0.2 l-3.12 -6.8 l-2.04 0 l0 6.64 c0 0.2 -0.16 0.36 -0.36 0.36 l-4.6 0 c-0.16 0 -0.28 -0.16 -0.28 -0.36 l0 -25.68 c0 -0.2 0.12 -0.36 0.28 -0.36 l8.32 0 c4.44 0 7.12 2.52 7.12 7.2 l0 5.04 c0 1.4 -0.24 2.72 -0.72 3.72 z M58.32 24.6 l0 -2.6 c0 -2.8 -1.04 -3.08 -4.08 -3.08 l-1.16 0 l0 8.84 l1.16 0 c2.52 0 4 -0.04 4.08 -3.16 z M50.76 37.56 l0 -6.84 l5.76 0 l3.36 6.92 c0.08 0.2 0.56 0.12 0.44 -0.24 l-3.36 -6.8 c3.12 -0.44 4.2 -2.08 4.2 -5.04 l0 -5 c0 -4.4 -4 -4.76 -5.24 -4.76 l-5.4 0 c-0.08 0 -0.24 0.12 -0.24 0.24 l0 21.52 c0 0.28 0.48 0.28 0.48 0 z M60.68 20.56 l0 5 c0 4.08 -2.6 4.64 -5.12 4.64 l-4.8 0 l0 -13.88 l5.16 0 c4.32 0 4.76 2.92 4.76 4.24 z M79.32 13.239999999999998 c3.44 0 5.84 0.76 7.36 2.4 c1.2 1.32 1.76 3.2 1.76 5.88 l0 10.52 c0 2.76 -0.56 4.68 -1.76 5.96 c-1.56 1.6 -3.92 2.4 -7.36 2.4 c-3.56 0 -5.88 -0.8 -7.4 -2.4 c-1.16 -1.28 -1.8 -3.2 -1.8 -5.96 l0 -10.52 c0 -2.68 0.64 -4.56 1.8 -5.92 c1.56 -1.6 3.92 -2.36 7.4 -2.36 z M83.11999999999999 30.84 l0 -8 c0 -3.52 -1.88 -4.24 -3.6 -4.24 l-0.48 0 c-2.56 0 -3.56 1.64 -3.56 4.24 l0 8 c0 3.52 1.88 4.28 3.56 4.28 l0.48 0 c2.56 0 3.56 -1.72 3.6 -4.28 z M72.64 21.8 l0 9.92 c0 1.88 0.48 3.44 1.6 4.6 c1.04 1.04 2.64 1.6 4.6 1.6 l1.04 0 c3.76 0 6.2 -2.4 6.2 -6.2 l0 -9.92 c0 -4.08 -2.16 -6.28 -6.2 -6.28 l-1.04 0 c-4.08 0 -6.2 2.2 -6.2 6.28 z M79.88 37.4 l-1.04 0 c-1.88 0 -3.28 -0.48 -4.28 -1.48 s-1.52 -2.4 -1.52 -4.2 l0 -9.92 c0 -3.8 2.04 -5.8 5.8 -5.8 l1.04 0 c3.8 0 5.68 1.96 5.68 5.8 l0 9.92 c0 1.68 -0.52 3.2 -1.6 4.24 c-1.04 0.88 -2.44 1.44 -4.08 1.44 z M104.44 23.8 c3.04 1.44 7 3.72 7 7.84 c0 1.2 -0.2 3.52 -1.52 5.48 c-1.48 2.2 -3.8 3.28 -7 3.28 c-3.4 0 -7.36 -1.64 -8.6 -5.36 c-0.04 -0.12 0 -0.24 0.12 -0.32 l3.68 -3.16 c0.16 -0.12 0.4 -0.12 0.52 0.08 c0.08 0.2 0.24 0.52 0.44 0.92 c0.6 1.24 2.04 2.48 3.64 2.48 c1.24 0 2.92 -0.68 2.92 -2.6 c0 -1.84 -2.52 -2.88 -4.08 -3.48 c-1.8 -0.72 -3.64 -1.64 -5.2 -3 c-1.64 -1.52 -2.44 -3.2 -2.44 -5.2 c0 -5 4.6 -7.52 8.96 -7.52 c3.44 0 6 1.8 7.68 5.36 c0.08 0.16 0 0.36 -0.12 0.44 l-3.56 2.48 c-0.16 0.08 -0.24 0.08 -0.4 -0.12 c-1.36 -1.96 -2.56 -2.88 -4.16 -2.88 c-0.84 0 -2.8 0.32 -2.8 1.8 c0 1.8 3.32 2.72 4.92 3.48 z M97.16 34.84 c1 2 3.76 3.16 6 3.16 c2.92 0 5.28 -2 5.6 -5.04 c0.4 -3.72 -2.52 -5.32 -5.4 -6.76 l-1.28 -0.56 c-2.96 -1.32 -5.12 -2.32 -5.12 -5.08 c0 -3.04 2.8 -4.44 5.56 -4.44 c2.52 0 3.84 1.48 4.52 2.4 c0.24 0.32 0.64 0.04 0.4 -0.28 c-0.68 -0.84 -2.12 -2.6 -4.92 -2.6 c-3.16 0 -6.04 1.56 -6.04 4.92 c0 3 2.4 4.16 5.44 5.56 l1.24 0.6 c3.96 1.88 5.4 3.64 5.08 6.2 c-0.6 4.08 -3.72 4.6 -5.08 4.6 c-3 0 -5 -1.8 -5.6 -2.92 c-0.2 -0.2 -0.48 0 -0.4 0.24 z"></path></g><g id="SvgjsG1524" featureKey="sloganFeature-0" transform="matrix(1.176498532295227,0,0,1.176498532295227,155.9154154510306,101.21029317583434)" fill="url(#SvgjsLinearGradient1532)"><path d="M1.1 9.3 c-0.1 0 -0.18 -0.08 -0.18 -0.18 l0 -2.14 c0 -0.1 0.08 -0.18 0.18 -0.18 l8.34 0 c0.1 0 0.18 0.08 0.18 0.18 l0 2.14 c0 0.1 -0.08 0.18 -0.18 0.18 l-2.84 0 l0 10.52 c0 0.1 -0.08 0.18 -0.18 0.18 l-2.3 0 c-0.1 0 -0.18 -0.08 -0.18 -0.18 l0 -10.52 l-2.84 0 z M9.88 7.16 c0.2 0.2 0.44 0.42 0.56 0.56 c0.04 0.04 0.06 0.08 0.06 0.1 l0 0.04 l-0.62 -0.64 l0 -0.06 z M9.88 8.36 l0 -0.58 l0.62 0.62 l0 0.58 z M9.88 9.12 l0 -0.22 l0.62 0.62 l0 0.48 c0 0.02 0 0.06 -0.02 0.08 l-0.68 -0.7 c0.04 -0.08 0.08 -0.16 0.08 -0.26 z M8.84 9.56 l0.56 0 l0.62 0.62 l-0.58 0 z M7.72 9.56 l0.56 0 l0.62 0.62 l-0.58 0 z M6.84 9.56 l0.3 0 l0.64 0.62 l-0.3 0 l0 0.24 l-0.64 -0.62 l0 -0.24 z M7.48 11 l0 0.56 l-0.64 -0.64 l0 -0.54 z M7.48 12.120000000000001 l0 0.56 l-0.64 -0.62 l0 -0.56 z M7.48 13.219999999999999 l0 0.58 l-0.64 -0.62 l0 -0.56 z M3.7 9.56 l0 0.46 l-0.48 -0.46 l0.48 0 z M2.72 10.18 l-0.62 -0.62 l0.54 0 l0.64 0.62 l-0.56 0 z M7.48 14.36 l0 0.56 l-0.64 -0.62 l0 -0.54 z M7.48 15.48 l0 0.58 l-0.64 -0.64 l0 -0.54 z M1.54 9.56 l0.6 0.62 l-0.16 0 c-0.06 0 -0.1 -0.02 -0.14 -0.06 l-0.56 -0.56 l0.26 0 z M7.48 16.6 l0 0.58 l-0.64 -0.62 l0 -0.58 z M7.48 17.72 l0 0.56 l-0.64 -0.6 l0 -0.58 z M6.84 18.8 l0 -0.58 l0.64 0.64 l0 0.54 z M7.48 19.98 l0 0.54 l-0.64 -0.62 l0 -0.54 z M7.24 20.88 l-0.56 0 l-0.6 -0.62 l0.36 0 c0.06 0 0.1 0 0.16 -0.04 z M6.12 20.88 l-0.54 0 l-0.64 -0.62 l0.56 0 z M4.3 20.26 l0.08 0 l0.62 0.62 c-0.06 0 -0.1 -0.02 -0.12 -0.06 z M20.9015 12 l0 -5.02 c0 -0.1 0.08 -0.18 0.18 -0.18 l2.28 0 c0.1 0 0.18 0.08 0.18 0.18 l0 12.84 c0 0.1 -0.08 0.18 -0.18 0.18 l-2.28 0 c-0.1 0 -0.18 -0.08 -0.18 -0.18 l0 -5.32 l-3.24 0 l0 5.32 c0 0.1 -0.08 0.18 -0.18 0.18 l-2.28 0 c-0.1 0 -0.16 -0.08 -0.16 -0.18 l0 -12.84 c0 -0.1 0.06 -0.18 0.16 -0.18 l2.28 0 c0.1 0 0.18 0.08 0.18 0.18 l0 5.02 l3.24 0 z M17.9015 10.78 l0 -0.58 l0.64 0.62 l0 0.58 z M17.9015 8.52 l0 -0.54 l0.64 0.6 l0 0.58 z M23.7815 14.4 l0 -0.54 l0.62 0.6 l0 0.56 z M17.9015 9.66 l0 -0.56 l0.64 0.6 l0 0.58 z M23.7815 18.9 l0 -0.58 l0.62 0.64 l0 0.54 z M23.7815 15.52 l0 -0.54 l0.62 0.6 l0 0.58 z M24.4015 8.86 l0 0.54 l-0.62 -0.6 l0 -0.58 z M23.7815 10.48 l0.62 0.62 l0 0.56 l-0.62 -0.6 l0 -0.58 z M17.9015 19.76 l0 -0.56 l0.64 0.6 l0 0.58 z M23.7815 9.92 l0 -0.56 l0.62 0.62 l0 0.54 z M23.7815 13.280000000000001 l0 -0.56 l0.62 0.6 l0 0.58 z M17.9015 18.62 l0 -0.54 l0.64 0.6 l0 0.58 z M23.7815 16.66 l0 -0.56 l0.62 0.6 l0 0.58 z M23.7815 17.78 l0 -0.58 l0.62 0.62 l0 0.56 z M17.9015 15.280000000000001 l0 -0.52 l0.06 0 l0.6 0.6 l-0.02 0 l0 0.52 z M17.2815 20.26 l0.2 0 c0.1 0 0.2 -0.04 0.28 -0.1 l0.68 0.7 l-0.56 0 z M21.761499999999998 20.26 l0.58 0 l0.62 0.6 l-0.58 0 z M23.7815 19.82 l0 -0.36 l0.62 0.62 l0 0.54 l-0.64 -0.64 c0.02 -0.06 0.02 -0.1 0.02 -0.16 z M17.9015 17.5 l0 -0.54 l0.64 0.62 l0 0.54 z M17.9015 16.38 l0 -0.56 l0.64 0.64 l0 0.54 z M23.7815 12.16 l0 -0.56 l0.62 0.62 l0 0.56 z M22.881500000000003 20.26 l0.48 0 c0.02 0 0.04 0 0.08 -0.04 l0.62 0.64 l-0.56 0 z M17.3415 20.86 l-0.58 0 l-0.6 -0.6 l0.54 0 z M19.061500000000002 14.76 l0.62 0.6 l-0.54 0 l-0.64 -0.6 l0.56 0 z M23.7815 7.16 l0.58 0.54 c0.02 0.02 0.04 0.08 0.04 0.12 l0 0.46 l-0.62 -0.6 l0 -0.52 z M20.6615 15.2 l0 0.16 l-0.4 0 l-0.62 -0.6 l0.54 0 z M18.5415 7.82 l0 0.2 l-0.64 -0.62 l0 -0.24 c0.14 0.12 0.28 0.24 0.58 0.54 c0.02 0.02 0.06 0.08 0.06 0.12 z M15.961500000000001 20.8 l-0.58 -0.54 l0.2 0 l0.62 0.6 l-0.14 0 c-0.06 0 -0.08 -0.04 -0.1 -0.06 z M17.9015 11.76 l0 -0.44 l0.4 0.44 l-0.4 0 z M30.063 20 c-0.1 0 -0.16 -0.08 -0.16 -0.18 l0 -12.84 c0 -0.1 0.06 -0.18 0.16 -0.18 l6.8 0 c0.1 0 0.18 0.08 0.18 0.18 l0 2.14 c0 0.1 -0.08 0.18 -0.18 0.18 l-4.32 0 l0 2.72 l3.36 0 c0.1 0 0.16 0.08 0.16 0.18 l0 2.18 c0 0.1 -0.06 0.18 -0.16 0.18 l-3.36 0 l0 2.94 l4.32 0 c0.1 0 0.18 0.08 0.18 0.18 l0 2.14 c0 0.1 -0.08 0.18 -0.18 0.18 l-6.8 0 z M36.323 14.36 l0.62 0.62 l0 0.28 c0 0.06 -0.08 0.14 -0.12 0.14 l-0.7 -0.68 c0.12 -0.06 0.2 -0.2 0.2 -0.36 z M37.303 19.82 l0.62 0.64 l0 0.24 c0 0.08 -0.08 0.16 -0.16 0.18 l-0.66 -0.7 c0.12 -0.06 0.2 -0.2 0.2 -0.36 z M36.323 13.8 l0 -0.58 l0.62 0.64 l0 0.56 z M32.803 10.28 l0 -0.58 l0.62 0.62 l0 0.58 z M33.443 15.42 l-0.62 -0.62 l0.58 0 l0.62 0.62 l-0.58 0 z M37.743 10.18 l-0.58 0 l-0.6 -0.62 l0.3 0 c0.08 0 0.16 -0.04 0.2 -0.06 z M32.723 20.88 l-0.56 0 l-0.62 -0.62 l0.58 0 z M30.423 20.26 l0.58 0 l0.6 0.62 l-0.56 0 z M37.303 19.28 l0 -0.58 l0.62 0.62 l0 0.56 z M35.063 14.8 l0.58 0 l0.6 0.62 l-0.54 0 z M36.043 10.18 l-0.6 -0.62 l0.56 0 l0.62 0.62 l-0.58 0 z M36.043 20.26 l0.56 0 l0.62 0.62 l-0.58 0 z M34.323 9.56 l0.54 0 l0.64 0.62 l-0.58 0 z M35.463 20.26 l0.64 0.62 l-0.58 0 l-0.6 -0.62 l0.54 0 z M34.522999999999996 14.8 l0.6 0.62 l-0.56 0 l-0.62 -0.62 l0.58 0 z M33.843 20.88 l-0.54 0 l-0.64 -0.62 l0.56 0 z M37.923 9.22 l0 0.56 l-0.62 -0.62 l0 -0.56 z M33.423 15.96 l0 0.54 l-0.62 -0.62 l0 -0.56 z M37.923 8.1 l0 0.56 l-0.62 -0.64 l0 -0.54 z M33.203 9.56 l0.54 0 l0.62 0.62 l-0.54 0 z M34.963 20.88 l-0.54 0 l-0.62 -0.62 l0.54 0 z M32.803 11.4 l0 -0.58 l0.62 0.64 l0 0.32 l-0.26 0 z M32.803 17 l0 -0.54 l0.62 0.62 l0 0.18 l-0.38 0 z M36.323 12.379999999999999 l0.58 0.58 c0.04 0.04 0.04 0.06 0.04 0.12 l0 0.22 l-0.62 -0.62 l0 -0.3 z M37.923 18.52 l0 0.24 l-0.62 -0.6 l0 -0.3 l0.56 0.54 c0.06 0.06 0.06 0.08 0.06 0.12 z M59.406 15.379999999999999 l0 -0.62 c0 -0.1 0.08 -0.18 0.18 -0.18 l2.28 0 c0.1 0 0.18 0.08 0.18 0.18 l0 1.26 c0 2.94 -1.58 4.18 -4.56 4.18 c-2.78 0 -4.6 -1.1 -4.6 -4.18 l0 -5.26 c0 -2.96 1.62 -4.14 4.6 -4.14 c2.82 0 4.56 1.08 4.56 4.14 l0 0.42 c0 0.1 -0.08 0.18 -0.18 0.18 l-2.3 0 c-0.1 0 -0.18 -0.08 -0.18 -0.18 l0 -0.32 c0 -1.1 -0.82 -1.56 -1.8 -1.56 l-0.24 0 c-0.66 0 -1.1 0.18 -1.4 0.58 c-0.28 0.38 -0.38 0.88 -0.38 1.54 l0 3.96 c0 1.74 0.98 2.12 1.78 2.12 l0.24 0 c0.66 0 1.12 -0.18 1.42 -0.58 c0.26 -0.36 0.4 -0.86 0.4 -1.54 z M57.086 10.46 c-0.1 0.1 -0.2 0.16 -0.28 0.3 l-0.7 -0.7 c0.04 -0.08 0.2 -0.26 0.28 -0.28 z M61.986 19.86 l-0.3 0.26 l-0.68 -0.7 c0.14 -0.1 0.2 -0.16 0.28 -0.26 z M62.446 19.18 c-0.08 0.12 -0.14 0.24 -0.2 0.34 l-0.7 -0.66 l0.22 -0.36 z M62.906 11.78 l0 0.28 c0 0.06 -0.06 0.14 -0.14 0.16 l-0.68 -0.7 c0.12 -0.06 0.2 -0.2 0.2 -0.34 z M55.846 10.9 c0.02 -0.18 0.04 -0.32 0.1 -0.48 l0.66 0.68 c-0.04 0.12 -0.1 0.28 -0.12 0.46 z M57.306 9.56 l0.64 0.62 c-0.18 0.02 -0.34 0.04 -0.48 0.1 l-0.68 -0.68 c0.12 -0.04 0.4 -0.08 0.52 -0.04 z M62.885999999999996 17.38 c0 0.18 -0.02 0.34 -0.04 0.52 l-0.66 -0.64 l0.08 -0.5 z M60.686 19.68 l0.68 0.68 c-0.1 0.06 -0.22 0.14 -0.36 0.2 l-0.66 -0.68 c0.12 -0.06 0.24 -0.12 0.34 -0.2 z M62.745999999999995 18.36 c-0.04 0.14 -0.08 0.3 -0.14 0.42 l-0.66 -0.68 c0.06 -0.2 0.1 -0.3 0.14 -0.4 z M60.186 20.86 l-0.64 -0.66 l0.4 -0.14 l0.66 0.66 c-0.12 0.06 -0.26 0.1 -0.42 0.14 z M58.586 20.38 c0.18 0 0.32 -0.02 0.5 -0.08 l0.66 0.66 l-0.5 0.06 z M58.366 21.08 l-0.2 0 l-0.62 -0.62 c0.16 0 0.36 0 0.54 -0.04 l0.62 0.64 c-0.12 0.02 -0.24 0.02 -0.34 0.02 z M62.906 16.28 l0 0.58 l-0.62 -0.64 l0 -0.56 z M55.806 13.120000000000001 l0 -0.56 l0.64 0.62 l0 0.54 z M55.806 12 l0 -0.58 l0.64 0.64 l0 0.54 z M62.266 10 l0.58 0.6 c0.02 0.18 0.04 0.4 0.04 0.62 l-0.6 -0.62 c0 -0.2 -0.02 -0.4 -0.02 -0.6 z M55.806 15.36 l0 -0.56 l0.64 0.62 l0 0.56 z M61.046 11.6 l0.54 0 l0.62 0.62 l-0.54 0 z M55.806 14.219999999999999 l0 -0.54 l0.64 0.62 l0 0.56 z M59.906 11.6 l0.56 0 l0.62 0.62 l-0.54 0 z M56.346 20.38 c0.2 0.02 0.4 0.04 0.62 0.04 l0.6 0.6 c-0.22 0 -0.46 -0.04 -0.66 -0.06 z M57.866 9.58 c0.44 0.04 0.88 0.2 1.14 0.64 c-0.16 -0.04 -0.34 -0.04 -0.52 -0.04 z M55.866 15.98 l0.58 0.58 l0.06 0.5 c-0.34 -0.2 -0.56 -0.58 -0.64 -1.08 z M54.846 19.98 c0.24 0.12 0.52 0.22 0.82 0.28 l0.5 0.5 c-0.52 -0.18 -0.98 -0.44 -1.32 -0.78 z M62.666 9.86 l-0.52 -0.5 c-0.06 -0.24 -0.1 -0.44 -0.18 -0.64 c-0.02 -0.02 -0.06 -0.06 -0.06 -0.1 c0.34 0.34 0.58 0.74 0.76 1.24 z M62.906 15.620000000000001 l0 0.1 l-0.62 -0.62 l0 -0.18 l0.58 0.58 c0.02 0.02 0.04 0.06 0.04 0.12 z M73.9075 12 l0 -5.02 c0 -0.1 0.08 -0.18 0.18 -0.18 l2.28 0 c0.1 0 0.18 0.08 0.18 0.18 l0 12.84 c0 0.1 -0.08 0.18 -0.18 0.18 l-2.28 0 c-0.1 0 -0.18 -0.08 -0.18 -0.18 l0 -5.32 l-3.24 0 l0 5.32 c0 0.1 -0.08 0.18 -0.18 0.18 l-2.28 0 c-0.1 0 -0.16 -0.08 -0.16 -0.18 l0 -12.84 c0 -0.1 0.06 -0.18 0.16 -0.18 l2.28 0 c0.1 0 0.18 0.08 0.18 0.18 l0 5.02 l3.24 0 z M70.9075 10.78 l0 -0.58 l0.64 0.62 l0 0.58 z M70.9075 8.52 l0 -0.54 l0.64 0.6 l0 0.58 z M76.78750000000001 14.4 l0 -0.54 l0.62 0.6 l0 0.56 z M70.9075 9.66 l0 -0.56 l0.64 0.6 l0 0.58 z M76.78750000000001 18.9 l0 -0.58 l0.62 0.64 l0 0.54 z M76.78750000000001 15.52 l0 -0.54 l0.62 0.6 l0 0.58 z M77.4075 8.86 l0 0.54 l-0.62 -0.6 l0 -0.58 z M76.78750000000001 10.48 l0.62 0.62 l0 0.56 l-0.62 -0.6 l0 -0.58 z M70.9075 19.76 l0 -0.56 l0.64 0.6 l0 0.58 z M76.78750000000001 9.92 l0 -0.56 l0.62 0.62 l0 0.54 z M76.78750000000001 13.280000000000001 l0 -0.56 l0.62 0.6 l0 0.58 z M70.9075 18.62 l0 -0.54 l0.64 0.6 l0 0.58 z M76.78750000000001 16.66 l0 -0.56 l0.62 0.6 l0 0.58 z M76.78750000000001 17.78 l0 -0.58 l0.62 0.62 l0 0.56 z M70.9075 15.280000000000001 l0 -0.52 l0.06 0 l0.6 0.6 l-0.02 0 l0 0.52 z M70.28750000000001 20.26 l0.2 0 c0.1 0 0.2 -0.04 0.28 -0.1 l0.68 0.7 l-0.56 0 z M74.7675 20.26 l0.58 0 l0.62 0.6 l-0.58 0 z M76.78750000000001 19.82 l0 -0.36 l0.62 0.62 l0 0.54 l-0.64 -0.64 c0.02 -0.06 0.02 -0.1 0.02 -0.16 z M70.9075 17.5 l0 -0.54 l0.64 0.62 l0 0.54 z M70.9075 16.38 l0 -0.56 l0.64 0.64 l0 0.54 z M76.78750000000001 12.16 l0 -0.56 l0.62 0.62 l0 0.56 z M75.8875 20.26 l0.48 0 c0.02 0 0.04 0 0.08 -0.04 l0.62 0.64 l-0.56 0 z M70.3475 20.86 l-0.58 0 l-0.6 -0.6 l0.54 0 z M72.06750000000001 14.76 l0.62 0.6 l-0.54 0 l-0.64 -0.6 l0.56 0 z M76.78750000000001 7.16 l0.58 0.54 c0.02 0.02 0.04 0.08 0.04 0.12 l0 0.46 l-0.62 -0.6 l0 -0.52 z M73.6675 15.2 l0 0.16 l-0.4 0 l-0.62 -0.6 l0.54 0 z M71.5475 7.82 l0 0.2 l-0.64 -0.62 l0 -0.24 c0.14 0.12 0.28 0.24 0.58 0.54 c0.02 0.02 0.06 0.08 0.06 0.12 z M68.9675 20.8 l-0.58 -0.54 l0.2 0 l0.62 0.6 l-0.14 0 c-0.06 0 -0.08 -0.04 -0.1 -0.06 z M70.9075 11.76 l0 -0.44 l0.4 0.44 l-0.4 0 z M87.249 6.619999999999999 c1.72 0 2.92 0.38 3.68 1.2 c0.6 0.66 0.88 1.6 0.88 2.94 l0 5.26 c0 1.38 -0.28 2.34 -0.88 2.98 c-0.78 0.8 -1.96 1.2 -3.68 1.2 c-1.78 0 -2.94 -0.4 -3.7 -1.2 c-0.58 -0.64 -0.9 -1.6 -0.9 -2.98 l0 -5.26 c0 -1.34 0.3 -2.3 0.9 -2.96 c0.76 -0.82 1.96 -1.18 3.7 -1.18 z M89.149 15.42 l0 -4 c0 -1.76 -0.94 -2.12 -1.8 -2.12 l-0.24 0 c-1.28 0 -1.78 0.82 -1.78 2.12 l0 4 c0 1.76 0.94 2.14 1.78 2.14 l0.24 0 c1.28 0 1.78 -0.86 1.8 -2.14 z M91.709 8.6 c0.04 0.06 0.1 0.1 0.1 0.1 c0.16 0.18 0.32 0.4 0.44 0.66 l-0.42 -0.44 c-0.06 -0.12 -0.08 -0.22 -0.12 -0.32 z M91.969 9.66 l0.56 0.54 c0.04 0.2 0.1 0.42 0.12 0.68 l-0.6 -0.6 c-0.02 -0.22 -0.04 -0.42 -0.08 -0.62 z M92.04899999999999 10.86 l0.62 0.6 l0 0.16 l0 0.4 l-0.62 -0.62 l0 -0.54 z M92.669 12.58 l0 0.58 l-0.62 -0.64 l0 -0.54 z M88.609 10.2 l-0.5 -0.5 c0.26 0.12 0.42 0.28 0.54 0.5 l-0.04 0 z M92.04899999999999 13.66 l0 -0.56 l0.62 0.6 l0 0.58 z M92.04899999999999 14.780000000000001 l0 -0.58 l0.62 0.62 l0 0.58 z M87.109 9.56 l0.3 0 l0.62 0.62 l-0.06 0 c-0.16 0 -0.32 0 -0.46 0.02 l-0.66 -0.62 c0.08 -0.02 0.18 -0.02 0.26 -0.02 z M92.04899999999999 15.9 l0 -0.58 l0.62 0.64 l0 0.54 z M86.029 9.88 c0.1 -0.1 0.22 -0.16 0.38 -0.2 l0.66 0.68 c-0.14 0.04 -0.24 0.12 -0.34 0.22 z M85.649 10.62 c0.06 -0.16 0.08 -0.3 0.16 -0.42 l0.66 0.68 c-0.06 0.12 -0.12 0.24 -0.14 0.4 z M92.009 16.98 c0.02 -0.18 0.04 -0.36 0.04 -0.52 l0.62 0.62 c0 0.18 -0.02 0.38 -0.02 0.52 z M91.829 17.9 c0.04 -0.12 0.08 -0.3 0.1 -0.44 l0.64 0.64 c-0.02 0.18 -0.04 0.32 -0.1 0.48 z M85.569 11.42 c0 -0.1 0 -0.2 0.04 -0.3 l0.62 0.64 c-0.02 0.16 -0.02 0.34 -0.02 0.52 l-0.64 -0.6 l0 -0.26 z M91.469 18.68 c0.08 -0.1 0.16 -0.22 0.2 -0.36 l0.68 0.68 c-0.04 0.12 -0.12 0.26 -0.2 0.38 z M85.569 12.8 l0 -0.58 l0.64 0.64 l0 0.54 z M90.969 19.3 c0.14 -0.1 0.16 -0.12 0.28 -0.28 l0.7 0.68 c-0.02 0.08 -0.14 0.2 -0.28 0.3 z M85.569 13.9 l0 -0.54 l0.64 0.62 l0 0.54 z M90.329 19.78 c0.12 -0.06 0.24 -0.12 0.34 -0.2 l0.68 0.68 c-0.1 0.06 -0.2 0.14 -0.32 0.22 z M85.569 15.02 l0 -0.54 l0.64 0.62 l0 0.56 z M89.969 19.98 l0.68 0.68 c-0.14 0.04 -0.28 0.1 -0.42 0.14 l-0.68 -0.68 c0.16 -0.04 0.28 -0.1 0.42 -0.14 z M85.609 15.6 l0.6 0.6 l0 0.06 c0 0.2 0 0.4 0.02 0.54 l-0.52 -0.52 c-0.08 -0.2 -0.1 -0.42 -0.1 -0.68 z M89.12899999999999 20.26 l0.64 0.66 c-0.14 0.04 -0.3 0.06 -0.46 0.08 l-0.66 -0.64 c0.18 -0.04 0.32 -0.06 0.48 -0.1 z M88.249 21.08 l-0.62 -0.62 c0.2 0 0.38 0 0.52 -0.04 l0.66 0.64 c-0.18 0 -0.36 0.02 -0.56 0.02 z M87.669 21.08 c-0.2 -0.02 -0.4 -0.02 -0.6 -0.06 l-0.56 -0.6 c0.16 0.04 0.36 0.04 0.56 0.04 z M85.609 20.68 l-0.46 -0.48 c0.22 0.08 0.46 0.12 0.7 0.16 l0.52 0.54 c-0.26 -0.04 -0.52 -0.12 -0.76 -0.22 z M102.4305 11.9 c1.52 0.72 3.5 1.86 3.5 3.92 c0 0.6 -0.1 1.76 -0.76 2.74 c-0.74 1.1 -1.9 1.64 -3.5 1.64 c-1.7 0 -3.68 -0.82 -4.3 -2.68 c-0.02 -0.06 0 -0.12 0.06 -0.16 l1.84 -1.58 c0.08 -0.06 0.2 -0.06 0.26 0.04 c0.04 0.1 0.12 0.26 0.22 0.46 c0.3 0.62 1.02 1.24 1.82 1.24 c0.62 0 1.46 -0.34 1.46 -1.3 c0 -0.92 -1.26 -1.44 -2.04 -1.74 c-0.9 -0.36 -1.82 -0.82 -2.6 -1.5 c-0.82 -0.76 -1.22 -1.6 -1.22 -2.6 c0 -2.5 2.3 -3.76 4.48 -3.76 c1.72 0 3 0.9 3.84 2.68 c0.04 0.08 0 0.18 -0.06 0.22 l-1.78 1.24 c-0.08 0.04 -0.12 0.04 -0.2 -0.06 c-0.68 -0.98 -1.28 -1.44 -2.08 -1.44 c-0.42 0 -1.4 0.16 -1.4 0.9 c0 0.9 1.66 1.36 2.46 1.74 z M105.5705 9.72 c0.12 -0.1 0.2 -0.24 0.18 -0.4 l0.34 0.36 c0.08 0.14 0.18 0.32 0.28 0.5 c0.02 0.08 0 0.18 -0.08 0.22 l-0.02 0.02 z M105.6305 10.88 l-0.7 -0.7 l0.32 -0.22 l0.7 0.7 z M104.9505 11.32 l-0.7 -0.7 l0.32 -0.22 l0.7 0.7 z M102.2505 9.76 c0.18 0.12 0.34 0.26 0.52 0.44 c-0.02 0 -0.08 -0.02 -0.1 -0.02 z M100.9305 9.56 c0.14 -0.04 0.3 -0.06 0.52 -0.06 l0.62 0.66 c-0.14 0 -0.3 0.02 -0.48 0.06 z M100.2505 10 c0.02 -0.08 0.1 -0.2 0.28 -0.3 l0.7 0.7 c-0.14 0.08 -0.24 0.18 -0.28 0.3 z M106.1705 15.92 l0 -0.1 c0 -0.16 -0.02 -0.34 -0.04 -0.5 l0.54 0.56 c0.06 0.2 0.1 0.42 0.1 0.64 z M106.0705 16.96 c0.02 -0.18 0.06 -0.36 0.06 -0.5 l0.64 0.64 c0 0.16 -0.02 0.3 -0.04 0.5 z M106.4905 18.5 l-0.66 -0.68 c0.04 -0.14 0.1 -0.3 0.12 -0.42 l0.68 0.68 c-0.04 0.12 -0.08 0.28 -0.14 0.42 z M106.1505 19.26 l-0.7 -0.68 c0.08 -0.12 0.14 -0.26 0.2 -0.38 l0.7 0.7 c-0.08 0.12 -0.12 0.26 -0.2 0.36 z M105.6705 19.9 l-0.7 -0.7 c0.08 -0.1 0.18 -0.2 0.26 -0.3 l0.7 0.7 c-0.08 0.1 -0.18 0.2 -0.26 0.3 z M100.1505 14.4 c0.24 0.1 0.5 0.22 0.74 0.32 c0.08 0.04 0.16 0.06 0.24 0.08 l0.42 0.42 c-0.38 -0.14 -0.76 -0.32 -1.1 -0.54 z M105.0505 20.42 l-0.68 -0.7 c0.1 -0.06 0.2 -0.14 0.3 -0.24 l0.7 0.7 c-0.1 0.1 -0.2 0.18 -0.32 0.24 z M104.2905 20.8 l-0.66 -0.68 c0.14 -0.06 0.26 -0.12 0.4 -0.2 l0.66 0.7 c-0.12 0.08 -0.24 0.14 -0.4 0.18 z M100.4505 16.8 c-0.16 -0.12 -0.26 -0.28 -0.36 -0.4 l0.28 0.28 l0.02 0.02 c0.04 0.02 0.04 0.06 0.06 0.1 z M103.4305 21.02 l-0.68 -0.64 c0.18 -0.06 0.32 -0.08 0.48 -0.12 l0.64 0.66 c-0.14 0.06 -0.3 0.08 -0.44 0.1 z M102.3505 21.08 l-0.62 -0.62 c0.2 0 0.36 0 0.52 -0.04 l0.64 0.66 l-0.54 0 z M100.9905 20.86 l-0.52 -0.54 c0.22 0.06 0.46 0.08 0.68 0.1 l0.58 0.6 c-0.24 -0.04 -0.48 -0.1 -0.74 -0.16 z M100.0705 20.48 c-0.3 -0.16 -0.58 -0.36 -0.82 -0.58 c0.12 0.08 0.28 0.16 0.42 0.2 z M103.7305 11 l0.2 -0.12 l0.7 0.68 l-0.1 0.06 c-0.08 0.06 -0.1 0.08 -0.2 -0.02 z M111.712 20 c-0.1 0 -0.16 -0.08 -0.16 -0.18 l0 -12.84 c0 -0.1 0.06 -0.18 0.16 -0.18 l6.8 0 c0.1 0 0.18 0.08 0.18 0.18 l0 2.14 c0 0.1 -0.08 0.18 -0.18 0.18 l-4.32 0 l0 2.72 l3.36 0 c0.1 0 0.16 0.08 0.16 0.18 l0 2.18 c0 0.1 -0.06 0.18 -0.16 0.18 l-3.36 0 l0 2.94 l4.32 0 c0.1 0 0.18 0.08 0.18 0.18 l0 2.14 c0 0.1 -0.08 0.18 -0.18 0.18 l-6.8 0 z M117.972 14.36 l0.62 0.62 l0 0.28 c0 0.06 -0.08 0.14 -0.12 0.14 l-0.7 -0.68 c0.12 -0.06 0.2 -0.2 0.2 -0.36 z M118.952 19.82 l0.62 0.64 l0 0.24 c0 0.08 -0.08 0.16 -0.16 0.18 l-0.66 -0.7 c0.12 -0.06 0.2 -0.2 0.2 -0.36 z M117.972 13.8 l0 -0.58 l0.62 0.64 l0 0.56 z M114.452 10.28 l0 -0.58 l0.62 0.62 l0 0.58 z M115.092 15.42 l-0.62 -0.62 l0.58 0 l0.62 0.62 l-0.58 0 z M119.392 10.18 l-0.58 0 l-0.6 -0.62 l0.3 0 c0.08 0 0.16 -0.04 0.2 -0.06 z M114.372 20.88 l-0.56 0 l-0.62 -0.62 l0.58 0 z M112.072 20.26 l0.58 0 l0.6 0.62 l-0.56 0 z M118.952 19.28 l0 -0.58 l0.62 0.62 l0 0.56 z M116.712 14.8 l0.58 0 l0.6 0.62 l-0.54 0 z M117.692 10.18 l-0.6 -0.62 l0.56 0 l0.62 0.62 l-0.58 0 z M117.692 20.26 l0.56 0 l0.62 0.62 l-0.58 0 z M115.972 9.56 l0.54 0 l0.64 0.62 l-0.58 0 z M117.112 20.26 l0.64 0.62 l-0.58 0 l-0.6 -0.62 l0.54 0 z M116.172 14.8 l0.6 0.62 l-0.56 0 l-0.62 -0.62 l0.58 0 z M115.49199999999999 20.88 l-0.54 0 l-0.64 -0.62 l0.56 0 z M119.572 9.22 l0 0.56 l-0.62 -0.62 l0 -0.56 z M115.072 15.96 l0 0.54 l-0.62 -0.62 l0 -0.56 z M119.572 8.1 l0 0.56 l-0.62 -0.64 l0 -0.54 z M114.852 9.56 l0.54 0 l0.62 0.62 l-0.54 0 z M116.612 20.88 l-0.54 0 l-0.62 -0.62 l0.54 0 z M114.452 11.4 l0 -0.58 l0.62 0.64 l0 0.32 l-0.26 0 z M114.452 17 l0 -0.54 l0.62 0.62 l0 0.18 l-0.38 0 z M117.972 12.379999999999999 l0.58 0.58 c0.04 0.04 0.04 0.06 0.04 0.12 l0 0.22 l-0.62 -0.62 l0 -0.3 z M119.572 18.52 l0 0.24 l-0.62 -0.6 l0 -0.3 l0.56 0.54 c0.06 0.06 0.06 0.08 0.06 0.12 z M130.15349999999998 6.98 c0 -0.1 0.08 -0.18 0.18 -0.18 l2.3 0 c0.1 0 0.18 0.08 0.18 0.18 l0 12.84 c0 0.1 -0.08 0.18 -0.18 0.18 l-2.22 0 c-0.08 0 -0.16 -0.04 -0.18 -0.1 l-2.92 -6.58 l0 6.5 c0 0.1 -0.08 0.18 -0.18 0.18 l-2.28 0 c-0.1 0 -0.16 -0.08 -0.16 -0.18 l0 -12.84 c0 -0.1 0.06 -0.18 0.16 -0.18 l2.36 0 c0.08 0 0.12 0.06 0.14 0.1 l2.8 6.46 l0 -6.38 z M133.6935 8.22 l0 0.56 l-0.64 -0.6 l0 -0.58 z M133.6935 9.36 l0 0.54 l-0.64 -0.6 l0 -0.58 z M133.6935 10.48 l0 0.54 l-0.64 -0.6 l0 -0.56 z M133.6935 11.6 l0 0.56 l-0.64 -0.6 l0 -0.58 z M133.6935 12.719999999999999 l0 0.56 l-0.64 -0.62 l0 -0.56 z M128.1935 7.699999999999999 l0.1 0.18 l-0.4 -0.38 l-0.06 -0.14 z M133.6935 13.82 l0 0.58 l-0.64 -0.62 l0 -0.56 z M128.71349999999998 8.88 l0.42 0.98 l-0.38 -0.38 l-0.44 -1 z M129.9135 11.66 l0 0.1 l-0.3 -0.3 l-0.42 -0.98 l0.36 0.38 z M133.6935 14.96 l0 0.56 l-0.64 -0.62 l0 -0.54 z M133.6935 16.08 l0 0.58 l-0.64 -0.64 l0 -0.54 z M133.6935 17.2 l0 0.58 l-0.64 -0.62 l0 -0.56 z M133.6935 18.32 l0 0.58 l-0.64 -0.62 l0 -0.58 z M133.6935 19.46 l0 0.56 l-0.64 -0.62 l0 -0.58 z M127.55349999999999 15.02 l0 -0.52 l0.44 0.92 z M133.5135 20.88 l-0.1 0 l-0.66 -0.66 c0.16 -0.04 0.26 -0.14 0.28 -0.26 l0.66 0.62 l0 0.12 c0 0.1 -0.08 0.18 -0.18 0.18 z M128.1935 16.2 l0 0.56 l-0.64 -0.64 l0 -0.54 z M132.2935 20.88 l-0.64 -0.62 l0.58 0 l0.62 0.62 l-0.56 0 z M128.1935 17.32 l0 0.56 l-0.64 -0.6 l0 -0.58 z M131.1335 20.82 l-0.54 -0.56 l0.52 0 l0.62 0.62 l-0.48 0 c-0.04 0 -0.06 0 -0.12 -0.06 z M128.1935 18.46 l0 0.54 l-0.64 -0.62 l0 -0.56 z M128.1935 19.56 l0 0.56 l-0.64 -0.62 l0 -0.54 z M127.19349999999999 20.26 c0.14 -0.04 0.26 -0.1 0.32 -0.24 l0.68 0.66 l0 0.02 c0 0.1 -0.08 0.18 -0.18 0.18 l-0.2 0 z M126.61349999999999 20.26 l0.62 0.62 l-0.54 0 l-0.64 -0.62 l0.56 0 z M125.03349999999999 20.26 l0.48 0 l0.6 0.62 l-0.4 0 c-0.06 0 -0.08 -0.02 -0.1 -0.06 c-0.06 -0.04 -0.32 -0.32 -0.58 -0.56 z M155.55649999999997 15.379999999999999 l0 -0.62 c0 -0.1 0.08 -0.18 0.18 -0.18 l2.28 0 c0.1 0 0.18 0.08 0.18 0.18 l0 1.26 c0 2.94 -1.58 4.18 -4.56 4.18 c-2.78 0 -4.6 -1.1 -4.6 -4.18 l0 -5.26 c0 -2.96 1.62 -4.14 4.6 -4.14 c2.82 0 4.56 1.08 4.56 4.14 l0 0.42 c0 0.1 -0.08 0.18 -0.18 0.18 l-2.3 0 c-0.1 0 -0.18 -0.08 -0.18 -0.18 l0 -0.32 c0 -1.1 -0.82 -1.56 -1.8 -1.56 l-0.24 0 c-0.66 0 -1.1 0.18 -1.4 0.58 c-0.28 0.38 -0.38 0.88 -0.38 1.54 l0 3.96 c0 1.74 0.98 2.12 1.78 2.12 l0.24 0 c0.66 0 1.12 -0.18 1.42 -0.58 c0.26 -0.36 0.4 -0.86 0.4 -1.54 z M153.23649999999998 10.46 c-0.1 0.1 -0.2 0.16 -0.28 0.3 l-0.7 -0.7 c0.04 -0.08 0.2 -0.26 0.28 -0.28 z M158.13649999999998 19.86 l-0.3 0.26 l-0.68 -0.7 c0.14 -0.1 0.2 -0.16 0.28 -0.26 z M158.5965 19.18 c-0.08 0.12 -0.14 0.24 -0.2 0.34 l-0.7 -0.66 l0.22 -0.36 z M159.05649999999997 11.78 l0 0.28 c0 0.06 -0.06 0.14 -0.14 0.16 l-0.68 -0.7 c0.12 -0.06 0.2 -0.2 0.2 -0.34 z M151.9965 10.9 c0.02 -0.18 0.04 -0.32 0.1 -0.48 l0.66 0.68 c-0.04 0.12 -0.1 0.28 -0.12 0.46 z M153.45649999999998 9.56 l0.64 0.62 c-0.18 0.02 -0.34 0.04 -0.48 0.1 l-0.68 -0.68 c0.12 -0.04 0.4 -0.08 0.52 -0.04 z M159.0365 17.38 c0 0.18 -0.02 0.34 -0.04 0.52 l-0.66 -0.64 l0.08 -0.5 z M156.83649999999997 19.68 l0.68 0.68 c-0.1 0.06 -0.22 0.14 -0.36 0.2 l-0.66 -0.68 c0.12 -0.06 0.24 -0.12 0.34 -0.2 z M158.89649999999997 18.36 c-0.04 0.14 -0.08 0.3 -0.14 0.42 l-0.66 -0.68 c0.06 -0.2 0.1 -0.3 0.14 -0.4 z M156.33649999999997 20.86 l-0.64 -0.66 l0.4 -0.14 l0.66 0.66 c-0.12 0.06 -0.26 0.1 -0.42 0.14 z M154.73649999999998 20.38 c0.18 0 0.32 -0.02 0.5 -0.08 l0.66 0.66 l-0.5 0.06 z M154.51649999999998 21.08 l-0.2 0 l-0.62 -0.62 c0.16 0 0.36 0 0.54 -0.04 l0.62 0.64 c-0.12 0.02 -0.24 0.02 -0.34 0.02 z M159.05649999999997 16.28 l0 0.58 l-0.62 -0.64 l0 -0.56 z M151.95649999999998 13.120000000000001 l0 -0.56 l0.64 0.62 l0 0.54 z M151.95649999999998 12 l0 -0.58 l0.64 0.64 l0 0.54 z M158.41649999999998 10 l0.58 0.6 c0.02 0.18 0.04 0.4 0.04 0.62 l-0.6 -0.62 c0 -0.2 -0.02 -0.4 -0.02 -0.6 z M151.95649999999998 15.36 l0 -0.56 l0.64 0.62 l0 0.56 z M157.1965 11.6 l0.54 0 l0.62 0.62 l-0.54 0 z M151.95649999999998 14.219999999999999 l0 -0.54 l0.64 0.62 l0 0.56 z M156.05649999999997 11.6 l0.56 0 l0.62 0.62 l-0.54 0 z M152.4965 20.38 c0.2 0.02 0.4 0.04 0.62 0.04 l0.6 0.6 c-0.22 0 -0.46 -0.04 -0.66 -0.06 z M154.01649999999998 9.58 c0.44 0.04 0.88 0.2 1.14 0.64 c-0.16 -0.04 -0.34 -0.04 -0.52 -0.04 z M152.01649999999998 15.98 l0.58 0.58 l0.06 0.5 c-0.34 -0.2 -0.56 -0.58 -0.64 -1.08 z M150.9965 19.98 c0.24 0.12 0.52 0.22 0.82 0.28 l0.5 0.5 c-0.52 -0.18 -0.98 -0.44 -1.32 -0.78 z M158.8165 9.86 l-0.52 -0.5 c-0.06 -0.24 -0.1 -0.44 -0.18 -0.64 c-0.02 -0.02 -0.06 -0.06 -0.06 -0.1 c0.34 0.34 0.58 0.74 0.76 1.24 z M159.05649999999997 15.620000000000001 l0 0.1 l-0.62 -0.62 l0 -0.18 l0.58 0.58 c0.02 0.02 0.04 0.06 0.04 0.12 z M168.53799999999998 6.619999999999999 c1.72 0 2.92 0.38 3.68 1.2 c0.6 0.66 0.88 1.6 0.88 2.94 l0 5.26 c0 1.38 -0.28 2.34 -0.88 2.98 c-0.78 0.8 -1.96 1.2 -3.68 1.2 c-1.78 0 -2.94 -0.4 -3.7 -1.2 c-0.58 -0.64 -0.9 -1.6 -0.9 -2.98 l0 -5.26 c0 -1.34 0.3 -2.3 0.9 -2.96 c0.76 -0.82 1.96 -1.18 3.7 -1.18 z M170.438 15.42 l0 -4 c0 -1.76 -0.94 -2.12 -1.8 -2.12 l-0.24 0 c-1.28 0 -1.78 0.82 -1.78 2.12 l0 4 c0 1.76 0.94 2.14 1.78 2.14 l0.24 0 c1.28 0 1.78 -0.86 1.8 -2.14 z M172.998 8.6 c0.04 0.06 0.1 0.1 0.1 0.1 c0.16 0.18 0.32 0.4 0.44 0.66 l-0.42 -0.44 c-0.06 -0.12 -0.08 -0.22 -0.12 -0.32 z M173.25799999999998 9.66 l0.56 0.54 c0.04 0.2 0.1 0.42 0.12 0.68 l-0.6 -0.6 c-0.02 -0.22 -0.04 -0.42 -0.08 -0.62 z M173.338 10.86 l0.62 0.6 l0 0.16 l0 0.4 l-0.62 -0.62 l0 -0.54 z M173.95799999999997 12.58 l0 0.58 l-0.62 -0.64 l0 -0.54 z M169.898 10.2 l-0.5 -0.5 c0.26 0.12 0.42 0.28 0.54 0.5 l-0.04 0 z M173.338 13.66 l0 -0.56 l0.62 0.6 l0 0.58 z M173.338 14.780000000000001 l0 -0.58 l0.62 0.62 l0 0.58 z M168.398 9.56 l0.3 0 l0.62 0.62 l-0.06 0 c-0.16 0 -0.32 0 -0.46 0.02 l-0.66 -0.62 c0.08 -0.02 0.18 -0.02 0.26 -0.02 z M173.338 15.9 l0 -0.58 l0.62 0.64 l0 0.54 z M167.31799999999998 9.88 c0.1 -0.1 0.22 -0.16 0.38 -0.2 l0.66 0.68 c-0.14 0.04 -0.24 0.12 -0.34 0.22 z M166.938 10.62 c0.06 -0.16 0.08 -0.3 0.16 -0.42 l0.66 0.68 c-0.06 0.12 -0.12 0.24 -0.14 0.4 z M173.29799999999997 16.98 c0.02 -0.18 0.04 -0.36 0.04 -0.52 l0.62 0.62 c0 0.18 -0.02 0.38 -0.02 0.52 z M173.118 17.9 c0.04 -0.12 0.08 -0.3 0.1 -0.44 l0.64 0.64 c-0.02 0.18 -0.04 0.32 -0.1 0.48 z M166.85799999999998 11.42 c0 -0.1 0 -0.2 0.04 -0.3 l0.62 0.64 c-0.02 0.16 -0.02 0.34 -0.02 0.52 l-0.64 -0.6 l0 -0.26 z M172.75799999999998 18.68 c0.08 -0.1 0.16 -0.22 0.2 -0.36 l0.68 0.68 c-0.04 0.12 -0.12 0.26 -0.2 0.38 z M166.85799999999998 12.8 l0 -0.58 l0.64 0.64 l0 0.54 z M172.25799999999998 19.3 c0.14 -0.1 0.16 -0.12 0.28 -0.28 l0.7 0.68 c-0.02 0.08 -0.14 0.2 -0.28 0.3 z M166.85799999999998 13.9 l0 -0.54 l0.64 0.62 l0 0.54 z M171.618 19.78 c0.12 -0.06 0.24 -0.12 0.34 -0.2 l0.68 0.68 c-0.1 0.06 -0.2 0.14 -0.32 0.22 z M166.85799999999998 15.02 l0 -0.54 l0.64 0.62 l0 0.56 z M171.25799999999998 19.98 l0.68 0.68 c-0.14 0.04 -0.28 0.1 -0.42 0.14 l-0.68 -0.68 c0.16 -0.04 0.28 -0.1 0.42 -0.14 z M166.898 15.6 l0.6 0.6 l0 0.06 c0 0.2 0 0.4 0.02 0.54 l-0.52 -0.52 c-0.08 -0.2 -0.1 -0.42 -0.1 -0.68 z M170.41799999999998 20.26 l0.64 0.66 c-0.14 0.04 -0.3 0.06 -0.46 0.08 l-0.66 -0.64 c0.18 -0.04 0.32 -0.06 0.48 -0.1 z M169.53799999999998 21.08 l-0.62 -0.62 c0.2 0 0.38 0 0.52 -0.04 l0.66 0.64 c-0.18 0 -0.36 0.02 -0.56 0.02 z M168.95799999999997 21.08 c-0.2 -0.02 -0.4 -0.02 -0.6 -0.06 l-0.56 -0.6 c0.16 0.04 0.36 0.04 0.56 0.04 z M166.898 20.68 l-0.46 -0.48 c0.22 0.08 0.46 0.12 0.7 0.16 l0.52 0.54 c-0.26 -0.04 -0.52 -0.12 -0.76 -0.22 z M179.37949999999998 20 c-0.1 0 -0.16 -0.08 -0.16 -0.18 l0 -12.84 c0 -0.1 0.06 -0.18 0.16 -0.18 l2.28 0 c0.1 0 0.18 0.08 0.18 0.18 l0 12.84 c0 0.1 -0.08 0.18 -0.18 0.18 l-2.28 0 z M182.0795 8.12 l0 -0.54 l0.64 0.6 l0 0.58 z M182.0795 9.26 l0 -0.56 l0.64 0.6 l0 0.58 z M182.0795 10.38 l0 -0.58 l0.64 0.62 l0 0.56 z M182.0795 11.5 l0 -0.58 l0.64 0.64 l0 0.54 z M182.0795 12.620000000000001 l0 -0.56 l0.64 0.62 l0 0.54 z M182.0795 13.76 l0 -0.58 l0.64 0.62 l0 0.56 z M182.0795 14.879999999999999 l0 -0.58 l0.64 0.62 l0 0.56 z M182.0795 15.98 l0 -0.56 l0.64 0.6 l0 0.58 z M182.0795 17.1 l0 -0.54 l0.64 0.62 l0 0.54 z M182.0795 18.22 l0 -0.54 l0.64 0.6 l0 0.58 z M182.0795 19.36 l0 -0.56 l0.64 0.6 l0 0.58 z M181.8395 20.22 c0.12 -0.04 0.22 -0.16 0.24 -0.32 l0.64 0.62 l0 0.18 c0 0.1 -0.08 0.18 -0.18 0.18 l-0.06 0 z M180.7395 20.26 l0.58 0 l0.62 0.62 l-0.58 0 z M180.2395 20.88 l-0.6 -0.62 l0.54 0 l0.64 0.62 l-0.58 0 z M193.601 6.98 c0 -0.1 0.08 -0.18 0.18 -0.18 l2.3 0 c0.1 0 0.18 0.08 0.18 0.18 l0 12.84 c0 0.1 -0.08 0.18 -0.18 0.18 l-2.22 0 c-0.08 0 -0.16 -0.04 -0.18 -0.1 l-2.92 -6.58 l0 6.5 c0 0.1 -0.08 0.18 -0.18 0.18 l-2.28 0 c-0.1 0 -0.16 -0.08 -0.16 -0.18 l0 -12.84 c0 -0.1 0.06 -0.18 0.16 -0.18 l2.36 0 c0.08 0 0.12 0.06 0.14 0.1 l2.8 6.46 l0 -6.38 z M197.141 8.22 l0 0.56 l-0.64 -0.6 l0 -0.58 z M197.141 9.36 l0 0.54 l-0.64 -0.6 l0 -0.58 z M197.141 10.48 l0 0.54 l-0.64 -0.6 l0 -0.56 z M197.141 11.6 l0 0.56 l-0.64 -0.6 l0 -0.58 z M197.141 12.719999999999999 l0 0.56 l-0.64 -0.62 l0 -0.56 z M191.641 7.699999999999999 l0.1 0.18 l-0.4 -0.38 l-0.06 -0.14 z M197.141 13.82 l0 0.58 l-0.64 -0.62 l0 -0.56 z M192.161 8.88 l0.42 0.98 l-0.38 -0.38 l-0.44 -1 z M193.361 11.66 l0 0.1 l-0.3 -0.3 l-0.42 -0.98 l0.36 0.38 z M197.141 14.96 l0 0.56 l-0.64 -0.62 l0 -0.54 z M197.141 16.08 l0 0.58 l-0.64 -0.64 l0 -0.54 z M197.141 17.2 l0 0.58 l-0.64 -0.62 l0 -0.56 z M197.141 18.32 l0 0.58 l-0.64 -0.62 l0 -0.58 z M197.141 19.46 l0 0.56 l-0.64 -0.62 l0 -0.58 z M191.001 15.02 l0 -0.52 l0.44 0.92 z M196.96099999999998 20.88 l-0.1 0 l-0.66 -0.66 c0.16 -0.04 0.26 -0.14 0.28 -0.26 l0.66 0.62 l0 0.12 c0 0.1 -0.08 0.18 -0.18 0.18 z M191.641 16.2 l0 0.56 l-0.64 -0.64 l0 -0.54 z M195.74099999999999 20.88 l-0.64 -0.62 l0.58 0 l0.62 0.62 l-0.56 0 z M191.641 17.32 l0 0.56 l-0.64 -0.6 l0 -0.58 z M194.581 20.82 l-0.54 -0.56 l0.52 0 l0.62 0.62 l-0.48 0 c-0.04 0 -0.06 0 -0.12 -0.06 z M191.641 18.46 l0 0.54 l-0.64 -0.62 l0 -0.56 z M191.641 19.56 l0 0.56 l-0.64 -0.62 l0 -0.54 z M190.641 20.26 c0.14 -0.04 0.26 -0.1 0.32 -0.24 l0.68 0.66 l0 0.02 c0 0.1 -0.08 0.18 -0.18 0.18 l-0.2 0 z M190.061 20.26 l0.62 0.62 l-0.54 0 l-0.64 -0.62 l0.56 0 z M188.481 20.26 l0.48 0 l0.6 0.62 l-0.4 0 c-0.06 0 -0.08 -0.02 -0.1 -0.06 c-0.06 -0.04 -0.32 -0.32 -0.58 -0.56 z"></path></g>
			</g>
		</svg>
	